<?xml version="1.0" encoding="UTF-8" standalone="no"?>
<!-- Created with Inkscape (http://www.inkscape.org/) -->

<svg
   xmlns:osb="http://www.openswatchbook.org/uri/2009/osb"
   xmlns:dc="http://purl.org/dc/elements/1.1/"
   xmlns:cc="http://creativecommons.org/ns#"
   xmlns:rdf="http://www.w3.org/1999/02/22-rdf-syntax-ns#"
   xmlns:svg="http://www.w3.org/2000/svg"
   xmlns="http://www.w3.org/2000/svg"
   xmlns:sodipodi="http://sodipodi.sourceforge.net/DTD/sodipodi-0.dtd"
   xmlns:inkscape="http://www.inkscape.org/namespaces/inkscape"
   width="1300"
   height="200"
   viewBox="0 0 343.95833 52.916668"
   version="1.1"
   id="svg8"
   sodipodi:docname="84-logo.svg"
   inkscape:version="0.92.1 r15371">
  <defs
     id="defs2">
    <linearGradient
       id="linearGradient6711"
       osb:paint="solid">
      <stop
         style="stop-color:#ce9087;stop-opacity:1;"
         offset="0"
         id="stop6709" />
    </linearGradient>
  </defs>
  <sodipodi:namedview
     id="base"
     pagecolor="#ffffff"
     bordercolor="#666666"
     borderopacity="1.0"
     inkscape:pageopacity="0.0"
     inkscape:pageshadow="2"
     inkscape:zoom="0.35355339"
     inkscape:cx="661.83003"
     inkscape:cy="546.15847"
     inkscape:document-units="mm"
     inkscape:current-layer="layer1"
     showgrid="false"
     showguides="true"
     inkscape:object-paths="false"
     inkscape:snap-intersection-paths="false"
     inkscape:snap-others="false"
     inkscape:snap-midpoints="false"
     inkscape:window-width="1920"
     inkscape:window-height="1038"
     inkscape:window-x="0"
     inkscape:window-y="23"
     inkscape:window-maximized="1"
     inkscape:snap-nodes="true"
     inkscape:object-nodes="false"
     inkscape:snap-smooth-nodes="true"
     inkscape:snap-grids="false"
     inkscape:snap-bbox="true"
     units="px"
     inkscape:pagecheckerboard="true">
    <inkscape:grid
       type="xygrid"
       id="grid4970" />
  </sodipodi:namedview>
  <metadata
     id="metadata5">
    <rdf:RDF>
      <cc:Work
         rdf:about="">
        <dc:format>image/svg+xml</dc:format>
        <dc:type
           rdf:resource="http://purl.org/dc/dcmitype/StillImage" />
        <dc:title></dc:title>
        <cc:license
           rdf:resource="http://creativecommons.org/licenses/by/4.0/" />
      </cc:Work>
      <cc:License
         rdf:about="http://creativecommons.org/licenses/by/4.0/">
        <cc:permits
           rdf:resource="http://creativecommons.org/ns#Reproduction" />
        <cc:permits
           rdf:resource="http://creativecommons.org/ns#Distribution" />
        <cc:requires
           rdf:resource="http://creativecommons.org/ns#Notice" />
        <cc:requires
           rdf:resource="http://creativecommons.org/ns#Attribution" />
        <cc:permits
           rdf:resource="http://creativecommons.org/ns#DerivativeWorks" />
      </cc:License>
    </rdf:RDF>
  </metadata>
  <g
     inkscape:label="Layer 1"
     inkscape:groupmode="layer"
     id="layer1"
     transform="translate(0,-244.08332)">
    <g
       id="g6791"
       style="fill:#3c3c3c;fill-opacity:1" />
    <g
       id="g5315"
       transform="matrix(4.8986899,0,0,4.8986899,-173.90101,-11.393383)">
      <g
         inkscape:export-ydpi="96"
         inkscape:export-xdpi="96"
         id="g5172">
        <g
           aria-label="stR84words.org"
           style="font-style:normal;font-variant:normal;font-weight:normal;font-stretch:normal;font-size:10.58333302px;line-height:1.25;font-family:'Romande ADF Std';-inkscape-font-specification:'Romande ADF Std';letter-spacing:0px;word-spacing:0px;fill:#000000;fill-opacity:1;stroke:none;stroke-width:0.1;stroke-miterlimit:4;stroke-dasharray:none"
           id="text4544">
          <path
             inkscape:connector-curvature="0"
             d="m 37.888333,55.303877 c -0.79375,0 -1.524,0.550334 -1.524,1.407584 0,1.68275 2.741084,1.61925 2.741084,2.95275 0,0.550333 -0.4445,0.878416 -1.026584,0.878416 -0.740833,0 -1.30175,-0.455083 -1.7145,-1.407583 h -0.254 l 0.296334,2.00025 h 0.211666 c 0.179917,-0.306917 0.34925,-0.41275 0.613834,-0.423333 0.338666,0.116416 0.677333,0.179916 1.016,0.179916 1.026583,0 1.788583,-0.66675 1.788583,-1.49225 0,-1.598083 -2.878667,-1.8415 -2.878667,-2.9845 0,-0.455083 0.381,-0.709083 0.867834,-0.709083 h 0.03175 c 0.381,0 0.6985,0.15875 0.994833,0.433917 l 0.08467,0.07408 c 0.179916,0.1905 0.328083,0.486833 0.4445,0.85725 h 0.254 l -0.22225,-1.894417 h -0.232834 c -0.03175,0.179917 -0.08467,0.402167 -0.211666,0.402167 -0.254,0 -0.635,-0.275167 -1.280584,-0.275167 z"
             style="fill:#1d1d1d;fill-opacity:1;stroke:#091021;stroke-opacity:1"
             id="path5371" />
          <path
             inkscape:connector-curvature="0"
             d="m 42.790236,59.780627 c 0,0.656167 -0.07408,0.73025 -0.804334,0.783167 v 0.201083 h 2.57175 v -0.201083 c -0.709083,-0.03175 -0.8255,-0.127 -0.8255,-0.6985 v -4.042833 h 0.486834 c 0.814916,0.01058 1.259416,0.402166 1.30175,1.016 h 0.254 v -1.672167 h -0.338667 c -0.148167,0.15875 -0.28575,0.243417 -0.582083,0.243417 h -0.05292 -3.069167 c -0.15875,-0.01058 -0.423333,-0.09525 -0.582083,-0.243417 h -0.34925 v 1.672167 h 0.243417 c 0.03175,-0.867834 0.34925,-1.016 1.312333,-1.016 h 0.433917 z"
             style="fill:#1d1d1d;fill-opacity:1;stroke:#091021;stroke-opacity:1"
             id="path5373" />
          <path
             style="fill:#1d1d1d;fill-opacity:1;stroke:#070c18;stroke-width:0.37795275;stroke-miterlimit:4;stroke-dasharray:none;stroke-opacity:1"
             d="m 175.17969,200.82227 v 0.83984 c 1,0.12 1.72117,0.24133 2.20117,0.36133 l 0.75976,0.28906 c 0.6,0.43999 0.92127,1.48016 0.91993,3.16016 l -0.0254,31.71679 c 3.36941,-1.11813 0.26517,-1.06065 4.27539,-3.16211 l -0.0899,-17.68554 h 2.75977 l 10.59961,13.32031 h 6.83984 v -0.79883 c -1.56,-0.27999 -2.59984,-0.52102 -3.83984,-2.04101 l -8.71875,-11.08008 c 3.28,-0.24 7.51859,-2.64024 7.55859,-7.24024 0,-5.23999 -4.36008,-7.67968 -11.08008,-7.67968 z m 10.48047,1.59961 c 5.55999,0 8.40039,1.92 8.40039,6 0,2.43997 -0.72024,5.72086 -4.24024,5.88085 l -1.51953,-2.08007 c -1.56,2.36 -3.03961,2.51953 -3.59961,2.51953 H 184.5 183.2207 v -10.75977 c 0,-1.08 0.43945,-1.56055 2.43946,-1.56054 z"
             transform="scale(0.26458333)"
             id="path5375"
             inkscape:connector-curvature="0"
             sodipodi:nodetypes="cccccccccccccccsccsccsccsc" />
          <path
             inkscape:connector-curvature="0"
             d="m 56.934276,55.978388 c -1.106311,-0.7112 -1.659467,-1.264355 -1.659467,-1.964266 0,-0.733778 0.7112,-1.2192 1.535289,-1.2192 0.959556,0 1.399822,0.564444 1.399822,1.388533 0,0.677333 -0.383822,1.264356 -1.1176,1.7272 z m 0.180622,1.490134 c 0.869244,0.620889 1.264356,1.061155 1.264356,1.772355 0,0.880534 -0.8128,1.365956 -1.614312,1.365956 -1.072444,0 -1.546577,-0.756356 -1.546577,-1.794933 0.01129,-0.778934 0.237066,-1.253067 1.095022,-1.885245 z m 0.124178,-1.264356 c 0.654755,-0.316089 1.704622,-1.128889 1.704622,-1.964266 v -0.04516 c 0,-1.038578 -0.925689,-1.7272 -2.122311,-1.7272 -1.377245,0 -2.359378,0.835378 -2.359378,1.9304 0,0.756356 0.180622,1.106311 1.580445,2.291644 -1.343378,0.993423 -1.659467,1.332089 -1.659467,2.223912 0,1.253066 1.027289,2.020711 2.393244,2.020711 1.535289,0 2.4384,-0.835378 2.4384,-2.065867 0,-0.903111 -0.383822,-1.524 -1.975555,-2.664178 z"
             style="font-style:normal;font-variant:normal;font-weight:normal;font-stretch:normal;font-size:11.28888893px;font-family:'Romande ADF Style Std';-inkscape-font-specification:'Romande ADF Style Std';fill:#196360;fill-opacity:1;stroke:#070c18;stroke-width:0.1;stroke-miterlimit:4;stroke-dasharray:none;stroke-opacity:1"
             id="path5377" />
          <path
             inkscape:connector-curvature="0"
             d="m 64.202204,57.931366 v -3.747911 c -0.158044,0.214489 -0.677333,0.462845 -0.880533,0.485422 v 3.262489 H 60.18336 l 3.138311,-4.289778 c 0.485422,-0.01129 0.880533,-0.428977 0.880533,-0.654755 v -0.02258 -0.496711 H 63.716782 L 59.77696,57.931366 V 58.7103 h 3.544711 v 2.054577 h 0.880533 V 58.7103 h 1.286933 v -0.778934 z"
             style="font-style:normal;font-variant:normal;font-weight:normal;font-stretch:normal;font-size:11.28888893px;font-family:'Romande ADF Style Std';-inkscape-font-specification:'Romande ADF Style Std';fill:#196360;fill-opacity:1;stroke:#070c18;stroke-width:0.1;stroke-miterlimit:4;stroke-dasharray:none;stroke-opacity:1"
             id="path5379" />
          <path
             inkscape:connector-curvature="0"
             d="m 67.807417,55.642544 v -0.211667 h -2.169584 v 0.211667 c 0.423334,0.08467 0.550334,0.137583 0.889,0.92075 l 1.68275,4.28625 h 0.169334 c 0.201083,-0.232833 0.47625,-0.529167 0.73025,-0.635 -0.105834,-0.116417 -0.211667,-0.232833 -0.3175,-0.423333 l 0.910166,-2.296584 1.354667,3.354917 h 0.179917 c 0.201083,-0.296333 0.497416,-0.529167 0.687916,-0.613833 -0.148166,-0.0635 -0.254,-0.211667 -0.338666,-0.391584 0.370416,-1.005416 0.846666,-2.201333 1.418166,-3.65125 0.137584,-0.370416 0.243417,-0.465666 0.709084,-0.550333 v -0.211667 h -1.756834 v 0.211667 l 0.28575,0.04233 c 0.211667,0.04233 0.3175,0.137584 0.3175,0.264584 0,0.15875 -0.0635,0.359833 -0.148166,0.592666 l -1.058334,2.783417 -1.217083,-3.048 c -0.0635,-0.15875 -0.116417,-0.275167 -0.116417,-0.359833 0,-0.169334 0.148167,-0.264584 0.645584,-0.275167 v -0.211667 h -2.3495 v 0.211667 c 0.486833,0.01058 0.550333,0.04233 0.85725,0.709083 l 0.28575,0.635 -0.889,2.307167 -1.227667,-3.069167 c -0.05292,-0.148166 -0.08467,-0.264583 -0.08467,-0.34925 0.01058,-0.07408 -0.04233,-0.211666 0.550334,-0.232833 z"
             style="fill:#1d1d1d;fill-opacity:1;stroke:#070c18;stroke-width:0.1;stroke-miterlimit:4;stroke-dasharray:none;stroke-opacity:1"
             id="path5381" />
          <path
             inkscape:connector-curvature="0"
             d="m 82.628216,57.970877 h -0.201084 v -1.93675 c 0,-0.179916 0.07408,-0.254 0.41275,-0.254 1.026584,0 1.608667,0.338667 1.608667,1.058334 0,0.433916 -0.179917,1.016 -0.772583,1.04775 l -0.328084,-0.381 c -0.296333,0.4445 -0.613833,0.465666 -0.6985,0.465666 z m 3.725333,2.592917 c -0.306917,-0.05292 -0.497417,-0.09525 -0.740833,-0.370417 l -1.693334,-2.00025 c 0.635,-0.04233 1.471084,-0.486833 1.481667,-1.3335 0,-0.98425 -0.878417,-1.439333 -2.233083,-1.439333 h -2.423584 v 0.201083 c 0.497417,0.07408 0.73025,0.04233 0.73025,0.6985 v 3.46075 c 0,0.656167 -0.09525,0.73025 -0.73025,0.783167 v 0.201083 h 2.455334 v -0.201083 c -0.66675,-0.03175 -0.772584,-0.127 -0.772584,-0.6985 v -1.534583 h 0.529167 l 1.979083,2.434166 h 1.418167 z"
             style="fill:#1d1d1d;fill-opacity:1;stroke:#070c18;stroke-width:0.1;stroke-miterlimit:4;stroke-dasharray:none;stroke-opacity:1"
             id="path5385" />
          <path
             inkscape:connector-curvature="0"
             d="m 88.524458,55.907127 c 0.04233,-0.08467 0.15875,-0.127 0.391583,-0.127 1.87325,0 2.709333,0.98425 2.709333,2.3495 0,1.49225 -0.846666,2.275417 -2.709333,2.275417 -0.28575,0 -0.41275,-0.0635 -0.41275,-0.296333 v -4.053417 z m -0.963084,3.958167 c 0,0.550333 -0.09525,0.645583 -0.762,0.6985 v 0.201083 h 2.487084 c 1.058333,0 1.905,-0.254 2.465916,-0.709083 l 0.116417,-0.116417 c 0.529167,-0.47625 0.772583,-1.132416 0.772583,-1.87325 0,-1.640416 -1.27,-2.645833 -3.4925,-2.645833 h -2.3495 v 0.201083 c 0.08467,0.02117 0.15875,0.02117 0.211667,0.03175 l 0.306917,0.0635 0.105833,0.0635 c 0.09525,0.07408 0.137583,0.254 0.137583,0.53975 z"
             style="fill:#1d1d1d;fill-opacity:1;stroke:#070c18;stroke-width:0.1;stroke-miterlimit:4;stroke-dasharray:none;stroke-opacity:1"
             id="path5387" />
          <path
             d="m 93.756014,58.956387 -0.423333,0.4445 0.409222,0.402166 0.4445,-0.402166 z"
             style="font-size:7.05555534px;fill:#1d1d1d;fill-opacity:1;stroke:#070c18;stroke-width:0.1;stroke-miterlimit:4;stroke-dasharray:none;stroke-opacity:1"
             id="path5391"
             inkscape:connector-curvature="0"
             sodipodi:nodetypes="ccccc" />
          <path
             d="m 96.728722,56.332351 -1.45345,0.747889 c -0.17639,0.289278 -0.275164,0.649111 -0.275164,1.051278 0,1.065389 0.740834,1.806222 1.693334,1.806222 l 1.2065,-0.500945 c 0.32455,-0.345722 0.52211,-0.8255 0.52211,-1.368777 0,-1.044222 -0.74083,-1.735667 -1.69333,-1.735667 z m -0.127,0.218722 c 0.73377,0 1.18533,0.776111 1.18533,1.792111 0,0.910167 -0.37394,1.389945 -0.98778,1.389945 -0.81139,0 -1.16416,-1.044222 -1.16416,-1.975556 0,-0.776111 0.74083,-1.164166 0.96661,-1.2065 z"
             style="font-style:normal;font-variant:normal;font-weight:normal;font-stretch:normal;font-size:7.05555534px;font-family:'Romande ADF Std';-inkscape-font-specification:'Romande ADF Std';fill:#1d1d1d;fill-opacity:1;stroke:#070c18;stroke-width:0.1;stroke-miterlimit:4;stroke-dasharray:none;stroke-opacity:1"
             id="path5393"
             inkscape:connector-curvature="0" />
          <path
             d="m 99.054952,56.868573 h 0.22578 c 0.21167,0 0.33867,0.105834 0.33867,0.430389 v 1.926167 c 0,0.381 -0.0564,0.430389 -0.57856,0.529166 v 0.112889 h 1.855608 v -0.112889 c -0.51505,-0.01411 -0.68439,-0.119944 -0.68439,-0.578555 v -1.728611 c 0,-0.275167 0.39512,-0.627945 0.58562,-0.627945 0.11288,0 0.35277,0.296334 0.40216,0.670278 l 0.58561,-0.585611 c -0.0212,-0.261055 -0.32455,-0.5715 -0.5715,-0.5715 l -1.00189,0.726722 v -0.712611 l -0.007,-0.01411 -1.150058,0.416278 z"
             style="font-style:normal;font-variant:normal;font-weight:normal;font-stretch:normal;font-size:7.05555534px;font-family:'Romande ADF Std';-inkscape-font-specification:'Romande ADF Std';fill:#1d1d1d;fill-opacity:1;stroke:#070c18;stroke-width:0.1;stroke-miterlimit:4;stroke-dasharray:none;stroke-opacity:1"
             id="path5395"
             inkscape:connector-curvature="0" />
          <path
             d="m 105.36008,56.586351 h -0.57855 c -0.14111,0 -0.29634,-0.02117 -0.4445,-0.07761 l -0.18345,-0.0635 c -0.20461,-0.07056 -0.40216,-0.112889 -0.60677,-0.112889 l -1.10773,0.599722 c -0.11289,0.197556 -0.16933,0.423334 -0.16933,0.656167 0,0.4445 0.20461,0.783167 0.72672,1.030111 -0.52916,0.472722 -0.6985,0.599722 -0.6985,0.839611 0,0.211667 0.4445,0.395111 0.85372,0.451556 l -1.22061,0.881944 c 0,0.451556 0.65617,0.740833 1.34056,0.740833 0.98072,0 2.00378,-0.564444 2.00378,-1.291166 0,-0.515056 -0.381,-0.790222 -0.90311,-0.818445 l -1.02306,-0.04233 c -0.4445,-0.01411 -0.67028,-0.08467 -0.67028,-0.211667 0,-0.183444 0.32456,-0.430389 0.51506,-0.479777 0.28222,0.02117 0.35983,0.03528 0.45155,0.03528 l 1.03011,-0.543277 c 0.10584,-0.176389 0.16934,-0.395112 0.16934,-0.649111 0,-0.204612 -0.0423,-0.423334 -0.14817,-0.642056 h 0.66322 z m -1.86972,3.400778 h 0.635 c 0.70556,0 1.00189,0.08467 1.00189,0.366889 0,0.479777 -0.62794,0.740833 -1.51694,0.740833 -0.76906,0 -1.09362,-0.197556 -1.09362,-0.522111 v -0.0071 c 0,-0.155222 0.60678,-0.500944 0.77612,-0.606777 z m -0.64911,-2.723445 0.0282,-0.254 c 0.0706,-0.310444 0.43745,-0.458611 0.59267,-0.458611 0.60678,0 0.85372,0.769056 0.85372,1.284111 0,0.458611 -0.24694,0.6985 -0.62794,0.6985 -0.55739,0 -0.84667,-0.529166 -0.84667,-1.27 z"
             style="font-style:normal;font-variant:normal;font-weight:normal;font-stretch:normal;font-size:7.05555534px;font-family:'Romande ADF Std';-inkscape-font-specification:'Romande ADF Std';fill:#1d1d1d;fill-opacity:1;stroke:#070c18;stroke-width:0.1;stroke-miterlimit:4;stroke-dasharray:none;stroke-opacity:1"
             id="path5397"
             inkscape:connector-curvature="0" />
        </g>
        <path
           style="fill:#196360;fill-opacity:1;stroke:#070c18;stroke-width:0.1;stroke-miterlimit:4;stroke-dasharray:none;stroke-opacity:1"
           d="m 77.154251,53.745861 -0.343648,0.9665 a 2.9876695,2.9876695 0 0 0 -1.511852,0.621821 l -0.921515,-0.437976 0.439119,0.923687 a 2.9876695,2.9876695 0 0 0 -0.62903,1.511738 l -0.960434,0.34159 0.961349,0.341818 a 2.9876695,2.9876695 0 0 0 0.624571,1.518834 l -0.435575,0.916361 0.919111,-0.436831 a 2.9876695,2.9876695 0 0 0 1.517459,0.629833 l 0.340445,0.957343 0.341245,-0.959632 a 2.9876695,2.9876695 0 0 0 1.518148,-0.626971 l 0.917732,0.436258 -0.438089,-0.921512 a 2.9876695,2.9876695 0 0 0 0.626402,-1.513455 l 0.961923,-0.342046 -0.964785,-0.343078 A 2.9876695,2.9876695 0 0 0 79.49283,55.818748 l 0.438546,-0.922542 -0.926091,0.440265 a 2.9876695,2.9876695 0 0 0 -1.507843,-0.625598 z m 0.01336,1.962306 a 1.9684301,1.9684301 0 0 1 1.968488,1.968487 1.9684301,1.9684301 0 0 1 -1.968488,1.968373 1.9684301,1.9684301 0 0 1 -1.968372,-1.968373 1.9684301,1.9684301 0 0 1 1.968372,-1.968487 z"
           id="path5682"
           inkscape:connector-curvature="0" />
        <path
           style="fill:#196360;fill-opacity:1;stroke:#070c18;stroke-width:0.1;stroke-miterlimit:4;stroke-dasharray:none;stroke-opacity:1"
           d="m 77.978381,57.677899 -0.82582,0.825814 -0.82581,-0.825814 0.82581,-0.825814 z"
           id="circle5698"
           inkscape:connector-curvature="0"
           sodipodi:nodetypes="ccccc" />
      </g>
    </g>
  </g>
</svg>
