<?xml version="1.0" encoding="UTF-8" standalone="no"?>
<!-- Created with Inkscape (http://www.inkscape.org/) -->

<svg
   xmlns:osb="http://www.openswatchbook.org/uri/2009/osb"
   xmlns:dc="http://purl.org/dc/elements/1.1/"
   xmlns:cc="http://creativecommons.org/ns#"
   xmlns:rdf="http://www.w3.org/1999/02/22-rdf-syntax-ns#"
   xmlns:svg="http://www.w3.org/2000/svg"
   xmlns="http://www.w3.org/2000/svg"
   xmlns:sodipodi="http://sodipodi.sourceforge.net/DTD/sodipodi-0.dtd"
   xmlns:inkscape="http://www.inkscape.org/namespaces/inkscape"
   width="400"
   height="500"
   viewBox="0 0 105.83333 132.29167"
   version="1.1"
   id="svg8"
   sodipodi:docname="male_icon.svg"
   inkscape:version="0.92.1 r15371">
  <defs
     id="defs2">
    <linearGradient
       id="linearGradient6711"
       osb:paint="solid">
      <stop
         style="stop-color:#ce9087;stop-opacity:1;"
         offset="0"
         id="stop6709" />
    </linearGradient>
  </defs>
  <sodipodi:namedview
     id="base"
     pagecolor="#ffffff"
     bordercolor="#666666"
     borderopacity="1.0"
     inkscape:pageopacity="0.0"
     inkscape:pageshadow="2"
     inkscape:zoom="0.70710678"
     inkscape:cx="161.08254"
     inkscape:cy="437.96449"
     inkscape:document-units="mm"
     inkscape:current-layer="layer1"
     showgrid="false"
     showguides="true"
     inkscape:object-paths="false"
     inkscape:snap-intersection-paths="false"
     inkscape:snap-others="false"
     inkscape:snap-midpoints="false"
     inkscape:window-width="1920"
     inkscape:window-height="1038"
     inkscape:window-x="0"
     inkscape:window-y="23"
     inkscape:window-maximized="1"
     inkscape:snap-nodes="true"
     inkscape:object-nodes="false"
     inkscape:snap-smooth-nodes="true"
     inkscape:snap-grids="false"
     inkscape:snap-bbox="true"
     units="px"
     inkscape:pagecheckerboard="true">
    <inkscape:grid
       type="xygrid"
       id="grid4970" />
  </sodipodi:namedview>
  <metadata
     id="metadata5">
    <rdf:RDF>
      <cc:Work
         rdf:about="">
        <dc:format>image/svg+xml</dc:format>
        <dc:type
           rdf:resource="http://purl.org/dc/dcmitype/StillImage" />
        <dc:title></dc:title>
        <cc:license
           rdf:resource="http://creativecommons.org/licenses/by/4.0/" />
      </cc:Work>
      <cc:License
         rdf:about="http://creativecommons.org/licenses/by/4.0/">
        <cc:permits
           rdf:resource="http://creativecommons.org/ns#Reproduction" />
        <cc:permits
           rdf:resource="http://creativecommons.org/ns#Distribution" />
        <cc:requires
           rdf:resource="http://creativecommons.org/ns#Notice" />
        <cc:requires
           rdf:resource="http://creativecommons.org/ns#Attribution" />
        <cc:permits
           rdf:resource="http://creativecommons.org/ns#DerivativeWorks" />
      </cc:License>
    </rdf:RDF>
  </metadata>
  <g
     inkscape:label="Layer 1"
     inkscape:groupmode="layer"
     id="layer1"
     transform="translate(0,-164.70832)">
    <g
       id="g6791"
       style="fill:#3c3c3c;fill-opacity:1" />
    <path
       style="fill:#1d1d1d;fill-opacity:1;stroke:#182b5e;stroke-width:0.06991823;stroke-miterlimit:4;stroke-dasharray:none;stroke-opacity:1"
       d="m 171.54905,43.417015 a 10.818223,10.580388 0 0 0 -1.39927,0.101495 l -0.97291,2.73612 a 8.2711328,8.0892949 0 0 0 -1.45708,0.576787 l -2.67896,-1.273462 a 10.818223,10.580388 0 0 0 -1.95536,1.86667 l 1.24817,2.625429 a 8.2711328,8.0892949 0 0 0 -0.70686,1.636417 l -2.80214,0.996237 a 10.818223,10.580388 0 0 0 -0.0939,1.314521 10.818223,10.580388 0 0 0 0.0952,1.297112 l 2.79689,0.994594 a 8.2711328,8.0892949 0 0 0 0.70916,1.640687 l -1.25704,2.644479 a 10.818223,10.580388 0 0 0 1.95437,1.84992 l 2.67404,-1.271164 a 8.2711328,8.0892949 0 0 0 1.48171,0.592553 l 0.97193,2.733493 a 10.818223,10.580388 0 0 0 1.39204,0.09887 10.818223,10.580388 0 0 0 1.38251,-0.09985 l 0.97193,-2.732179 a 8.2711328,8.0892949 0 0 0 1.48762,-0.589926 l 2.67766,1.272806 a 10.818223,10.580388 0 0 0 1.9432,-1.858132 l -1.24817,-2.625426 a 8.2711328,8.0892949 0 0 0 0.71376,-1.660396 l 2.79918,-0.995252 a 10.818223,10.580388 0 0 0 0.0907,-1.292184 10.818223,10.580388 0 0 0 -0.0972,-1.312222 l -2.80051,-0.995908 a 8.2711328,8.0892949 0 0 0 -0.71347,-1.641349 l 1.25507,-2.640537 a 10.818223,10.580388 0 0 0 -1.96095,-1.850248 l -2.67929,1.273461 a 8.2711328,8.0892949 0 0 0 -1.46168,-0.582042 l -0.97193,-2.732836 a 10.818223,10.580388 0 0 0 -1.38842,-0.09854 z m 0,7.236102 a 3.5226077,3.3442311 0 0 1 3.52247,3.344112 3.5226077,3.3442311 0 0 1 -3.52247,3.34444 3.5226077,3.3442311 0 0 1 -3.52247,-3.34444 3.5226077,3.3442311 0 0 1 3.52247,-3.344112 z"
       id="path5661"
       inkscape:connector-curvature="0" />
    <g
       id="g5172"
       inkscape:export-xdpi="96"
       inkscape:export-ydpi="96">
      <g
         id="text4544"
         style="font-style:normal;font-variant:normal;font-weight:normal;font-stretch:normal;font-size:10.58333302px;line-height:1.25;font-family:'Romande ADF Std';-inkscape-font-specification:'Romande ADF Std';letter-spacing:0px;word-spacing:0px;fill:#000000;fill-opacity:1;stroke:none;stroke-width:0.1;stroke-miterlimit:4;stroke-dasharray:none"
         aria-label="stR84words.org">
        <path
           id="path5371"
           style="fill:#1d1d1d;fill-opacity:1;stroke:#091021;stroke-opacity:1"
           d="m 37.888333,55.303877 c -0.79375,0 -1.524,0.550334 -1.524,1.407584 0,1.68275 2.741084,1.61925 2.741084,2.95275 0,0.550333 -0.4445,0.878416 -1.026584,0.878416 -0.740833,0 -1.30175,-0.455083 -1.7145,-1.407583 h -0.254 l 0.296334,2.00025 h 0.211666 c 0.179917,-0.306917 0.34925,-0.41275 0.613834,-0.423333 0.338666,0.116416 0.677333,0.179916 1.016,0.179916 1.026583,0 1.788583,-0.66675 1.788583,-1.49225 0,-1.598083 -2.878667,-1.8415 -2.878667,-2.9845 0,-0.455083 0.381,-0.709083 0.867834,-0.709083 h 0.03175 c 0.381,0 0.6985,0.15875 0.994833,0.433917 l 0.08467,0.07408 c 0.179916,0.1905 0.328083,0.486833 0.4445,0.85725 h 0.254 l -0.22225,-1.894417 h -0.232834 c -0.03175,0.179917 -0.08467,0.402167 -0.211666,0.402167 -0.254,0 -0.635,-0.275167 -1.280584,-0.275167 z"
           inkscape:connector-curvature="0" />
        <path
           id="path5373"
           style="fill:#1d1d1d;fill-opacity:1;stroke:#091021;stroke-opacity:1"
           d="m 42.790236,59.780627 c 0,0.656167 -0.07408,0.73025 -0.804334,0.783167 v 0.201083 h 2.57175 v -0.201083 c -0.709083,-0.03175 -0.8255,-0.127 -0.8255,-0.6985 v -4.042833 h 0.486834 c 0.814916,0.01058 1.259416,0.402166 1.30175,1.016 h 0.254 v -1.672167 h -0.338667 c -0.148167,0.15875 -0.28575,0.243417 -0.582083,0.243417 h -0.05292 -3.069167 c -0.15875,-0.01058 -0.423333,-0.09525 -0.582083,-0.243417 h -0.34925 v 1.672167 h 0.243417 c 0.03175,-0.867834 0.34925,-1.016 1.312333,-1.016 h 0.433917 z"
           inkscape:connector-curvature="0" />
        <path
           sodipodi:nodetypes="cccccccccccccccsccsccsccsc"
           inkscape:connector-curvature="0"
           id="path5375"
           transform="scale(0.26458333)"
           d="m 175.17969,200.82227 v 0.83984 c 1,0.12 1.72117,0.24133 2.20117,0.36133 l 0.75976,0.28906 c 0.6,0.43999 0.92127,1.48016 0.91993,3.16016 l -0.0254,31.71679 c 3.36941,-1.11813 0.26517,-1.06065 4.27539,-3.16211 l -0.0899,-17.68554 h 2.75977 l 10.59961,13.32031 h 6.83984 v -0.79883 c -1.56,-0.27999 -2.59984,-0.52102 -3.83984,-2.04101 l -8.71875,-11.08008 c 3.28,-0.24 7.51859,-2.64024 7.55859,-7.24024 0,-5.23999 -4.36008,-7.67968 -11.08008,-7.67968 z m 10.48047,1.59961 c 5.55999,0 8.40039,1.92 8.40039,6 0,2.43997 -0.72024,5.72086 -4.24024,5.88085 l -1.51953,-2.08007 c -1.56,2.36 -3.03961,2.51953 -3.59961,2.51953 H 184.5 183.2207 v -10.75977 c 0,-1.08 0.43945,-1.56055 2.43946,-1.56054 z"
           style="fill:#1d1d1d;fill-opacity:1;stroke:#070c18;stroke-width:0.37795275;stroke-miterlimit:4;stroke-dasharray:none;stroke-opacity:1" />
        <path
           id="path5377"
           style="font-style:normal;font-variant:normal;font-weight:normal;font-stretch:normal;font-size:11.28888893px;font-family:'Romande ADF Style Std';-inkscape-font-specification:'Romande ADF Style Std';fill:#196360;fill-opacity:1;stroke:#070c18;stroke-width:0.1;stroke-miterlimit:4;stroke-dasharray:none;stroke-opacity:1"
           d="m 56.934276,55.978388 c -1.106311,-0.7112 -1.659467,-1.264355 -1.659467,-1.964266 0,-0.733778 0.7112,-1.2192 1.535289,-1.2192 0.959556,0 1.399822,0.564444 1.399822,1.388533 0,0.677333 -0.383822,1.264356 -1.1176,1.7272 z m 0.180622,1.490134 c 0.869244,0.620889 1.264356,1.061155 1.264356,1.772355 0,0.880534 -0.8128,1.365956 -1.614312,1.365956 -1.072444,0 -1.546577,-0.756356 -1.546577,-1.794933 0.01129,-0.778934 0.237066,-1.253067 1.095022,-1.885245 z m 0.124178,-1.264356 c 0.654755,-0.316089 1.704622,-1.128889 1.704622,-1.964266 v -0.04516 c 0,-1.038578 -0.925689,-1.7272 -2.122311,-1.7272 -1.377245,0 -2.359378,0.835378 -2.359378,1.9304 0,0.756356 0.180622,1.106311 1.580445,2.291644 -1.343378,0.993423 -1.659467,1.332089 -1.659467,2.223912 0,1.253066 1.027289,2.020711 2.393244,2.020711 1.535289,0 2.4384,-0.835378 2.4384,-2.065867 0,-0.903111 -0.383822,-1.524 -1.975555,-2.664178 z"
           inkscape:connector-curvature="0" />
        <path
           id="path5379"
           style="font-style:normal;font-variant:normal;font-weight:normal;font-stretch:normal;font-size:11.28888893px;font-family:'Romande ADF Style Std';-inkscape-font-specification:'Romande ADF Style Std';fill:#196360;fill-opacity:1;stroke:#070c18;stroke-width:0.1;stroke-miterlimit:4;stroke-dasharray:none;stroke-opacity:1"
           d="m 64.202204,57.931366 v -3.747911 c -0.158044,0.214489 -0.677333,0.462845 -0.880533,0.485422 v 3.262489 H 60.18336 l 3.138311,-4.289778 c 0.485422,-0.01129 0.880533,-0.428977 0.880533,-0.654755 v -0.02258 -0.496711 H 63.716782 L 59.77696,57.931366 V 58.7103 h 3.544711 v 2.054577 h 0.880533 V 58.7103 h 1.286933 v -0.778934 z"
           inkscape:connector-curvature="0" />
        <path
           id="path5381"
           style="fill:#1d1d1d;fill-opacity:1;stroke:#070c18;stroke-width:0.1;stroke-miterlimit:4;stroke-dasharray:none;stroke-opacity:1"
           d="m 67.807417,55.642544 v -0.211667 h -2.169584 v 0.211667 c 0.423334,0.08467 0.550334,0.137583 0.889,0.92075 l 1.68275,4.28625 h 0.169334 c 0.201083,-0.232833 0.47625,-0.529167 0.73025,-0.635 -0.105834,-0.116417 -0.211667,-0.232833 -0.3175,-0.423333 l 0.910166,-2.296584 1.354667,3.354917 h 0.179917 c 0.201083,-0.296333 0.497416,-0.529167 0.687916,-0.613833 -0.148166,-0.0635 -0.254,-0.211667 -0.338666,-0.391584 0.370416,-1.005416 0.846666,-2.201333 1.418166,-3.65125 0.137584,-0.370416 0.243417,-0.465666 0.709084,-0.550333 v -0.211667 h -1.756834 v 0.211667 l 0.28575,0.04233 c 0.211667,0.04233 0.3175,0.137584 0.3175,0.264584 0,0.15875 -0.0635,0.359833 -0.148166,0.592666 l -1.058334,2.783417 -1.217083,-3.048 c -0.0635,-0.15875 -0.116417,-0.275167 -0.116417,-0.359833 0,-0.169334 0.148167,-0.264584 0.645584,-0.275167 v -0.211667 h -2.3495 v 0.211667 c 0.486833,0.01058 0.550333,0.04233 0.85725,0.709083 l 0.28575,0.635 -0.889,2.307167 -1.227667,-3.069167 c -0.05292,-0.148166 -0.08467,-0.264583 -0.08467,-0.34925 0.01058,-0.07408 -0.04233,-0.211666 0.550334,-0.232833 z"
           inkscape:connector-curvature="0" />
        <path
           id="path5385"
           style="fill:#1d1d1d;fill-opacity:1;stroke:#070c18;stroke-width:0.1;stroke-miterlimit:4;stroke-dasharray:none;stroke-opacity:1"
           d="m 82.628216,57.970877 h -0.201084 v -1.93675 c 0,-0.179916 0.07408,-0.254 0.41275,-0.254 1.026584,0 1.608667,0.338667 1.608667,1.058334 0,0.433916 -0.179917,1.016 -0.772583,1.04775 l -0.328084,-0.381 c -0.296333,0.4445 -0.613833,0.465666 -0.6985,0.465666 z m 3.725333,2.592917 c -0.306917,-0.05292 -0.497417,-0.09525 -0.740833,-0.370417 l -1.693334,-2.00025 c 0.635,-0.04233 1.471084,-0.486833 1.481667,-1.3335 0,-0.98425 -0.878417,-1.439333 -2.233083,-1.439333 h -2.423584 v 0.201083 c 0.497417,0.07408 0.73025,0.04233 0.73025,0.6985 v 3.46075 c 0,0.656167 -0.09525,0.73025 -0.73025,0.783167 v 0.201083 h 2.455334 v -0.201083 c -0.66675,-0.03175 -0.772584,-0.127 -0.772584,-0.6985 v -1.534583 h 0.529167 l 1.979083,2.434166 h 1.418167 z"
           inkscape:connector-curvature="0" />
        <path
           id="path5387"
           style="fill:#1d1d1d;fill-opacity:1;stroke:#070c18;stroke-width:0.1;stroke-miterlimit:4;stroke-dasharray:none;stroke-opacity:1"
           d="m 88.524458,55.907127 c 0.04233,-0.08467 0.15875,-0.127 0.391583,-0.127 1.87325,0 2.709333,0.98425 2.709333,2.3495 0,1.49225 -0.846666,2.275417 -2.709333,2.275417 -0.28575,0 -0.41275,-0.0635 -0.41275,-0.296333 v -4.053417 z m -0.963084,3.958167 c 0,0.550333 -0.09525,0.645583 -0.762,0.6985 v 0.201083 h 2.487084 c 1.058333,0 1.905,-0.254 2.465916,-0.709083 l 0.116417,-0.116417 c 0.529167,-0.47625 0.772583,-1.132416 0.772583,-1.87325 0,-1.640416 -1.27,-2.645833 -3.4925,-2.645833 h -2.3495 v 0.201083 c 0.08467,0.02117 0.15875,0.02117 0.211667,0.03175 l 0.306917,0.0635 0.105833,0.0635 c 0.09525,0.07408 0.137583,0.254 0.137583,0.53975 z"
           inkscape:connector-curvature="0" />
        <path
           sodipodi:nodetypes="ccccc"
           inkscape:connector-curvature="0"
           id="path5391"
           style="font-size:7.05555534px;fill:#1d1d1d;fill-opacity:1;stroke:#070c18;stroke-width:0.1;stroke-miterlimit:4;stroke-dasharray:none;stroke-opacity:1"
           d="m 93.756014,58.956387 -0.423333,0.4445 0.409222,0.402166 0.4445,-0.402166 z" />
        <path
           inkscape:connector-curvature="0"
           id="path5393"
           style="font-style:normal;font-variant:normal;font-weight:normal;font-stretch:normal;font-size:7.05555534px;font-family:'Romande ADF Std';-inkscape-font-specification:'Romande ADF Std';fill:#1d1d1d;fill-opacity:1;stroke:#070c18;stroke-width:0.1;stroke-miterlimit:4;stroke-dasharray:none;stroke-opacity:1"
           d="m 96.728722,56.332351 -1.45345,0.747889 c -0.17639,0.289278 -0.275164,0.649111 -0.275164,1.051278 0,1.065389 0.740834,1.806222 1.693334,1.806222 l 1.2065,-0.500945 c 0.32455,-0.345722 0.52211,-0.8255 0.52211,-1.368777 0,-1.044222 -0.74083,-1.735667 -1.69333,-1.735667 z m -0.127,0.218722 c 0.73377,0 1.18533,0.776111 1.18533,1.792111 0,0.910167 -0.37394,1.389945 -0.98778,1.389945 -0.81139,0 -1.16416,-1.044222 -1.16416,-1.975556 0,-0.776111 0.74083,-1.164166 0.96661,-1.2065 z" />
        <path
           inkscape:connector-curvature="0"
           id="path5395"
           style="font-style:normal;font-variant:normal;font-weight:normal;font-stretch:normal;font-size:7.05555534px;font-family:'Romande ADF Std';-inkscape-font-specification:'Romande ADF Std';fill:#1d1d1d;fill-opacity:1;stroke:#070c18;stroke-width:0.1;stroke-miterlimit:4;stroke-dasharray:none;stroke-opacity:1"
           d="m 99.054952,56.868573 h 0.22578 c 0.21167,0 0.33867,0.105834 0.33867,0.430389 v 1.926167 c 0,0.381 -0.0564,0.430389 -0.57856,0.529166 v 0.112889 h 1.855608 v -0.112889 c -0.51505,-0.01411 -0.68439,-0.119944 -0.68439,-0.578555 v -1.728611 c 0,-0.275167 0.39512,-0.627945 0.58562,-0.627945 0.11288,0 0.35277,0.296334 0.40216,0.670278 l 0.58561,-0.585611 c -0.0212,-0.261055 -0.32455,-0.5715 -0.5715,-0.5715 l -1.00189,0.726722 v -0.712611 l -0.007,-0.01411 -1.150058,0.416278 z" />
        <path
           inkscape:connector-curvature="0"
           id="path5397"
           style="font-style:normal;font-variant:normal;font-weight:normal;font-stretch:normal;font-size:7.05555534px;font-family:'Romande ADF Std';-inkscape-font-specification:'Romande ADF Std';fill:#1d1d1d;fill-opacity:1;stroke:#070c18;stroke-width:0.1;stroke-miterlimit:4;stroke-dasharray:none;stroke-opacity:1"
           d="m 105.36008,56.586351 h -0.57855 c -0.14111,0 -0.29634,-0.02117 -0.4445,-0.07761 l -0.18345,-0.0635 c -0.20461,-0.07056 -0.40216,-0.112889 -0.60677,-0.112889 l -1.10773,0.599722 c -0.11289,0.197556 -0.16933,0.423334 -0.16933,0.656167 0,0.4445 0.20461,0.783167 0.72672,1.030111 -0.52916,0.472722 -0.6985,0.599722 -0.6985,0.839611 0,0.211667 0.4445,0.395111 0.85372,0.451556 l -1.22061,0.881944 c 0,0.451556 0.65617,0.740833 1.34056,0.740833 0.98072,0 2.00378,-0.564444 2.00378,-1.291166 0,-0.515056 -0.381,-0.790222 -0.90311,-0.818445 l -1.02306,-0.04233 c -0.4445,-0.01411 -0.67028,-0.08467 -0.67028,-0.211667 0,-0.183444 0.32456,-0.430389 0.51506,-0.479777 0.28222,0.02117 0.35983,0.03528 0.45155,0.03528 l 1.03011,-0.543277 c 0.10584,-0.176389 0.16934,-0.395112 0.16934,-0.649111 0,-0.204612 -0.0423,-0.423334 -0.14817,-0.642056 h 0.66322 z m -1.86972,3.400778 h 0.635 c 0.70556,0 1.00189,0.08467 1.00189,0.366889 0,0.479777 -0.62794,0.740833 -1.51694,0.740833 -0.76906,0 -1.09362,-0.197556 -1.09362,-0.522111 v -0.0071 c 0,-0.155222 0.60678,-0.500944 0.77612,-0.606777 z m -0.64911,-2.723445 0.0282,-0.254 c 0.0706,-0.310444 0.43745,-0.458611 0.59267,-0.458611 0.60678,0 0.85372,0.769056 0.85372,1.284111 0,0.458611 -0.24694,0.6985 -0.62794,0.6985 -0.55739,0 -0.84667,-0.529166 -0.84667,-1.27 z" />
      </g>
      <path
         inkscape:connector-curvature="0"
         id="path5682"
         d="m 77.154251,53.745861 -0.343648,0.9665 a 2.9876695,2.9876695 0 0 0 -1.511852,0.621821 l -0.921515,-0.437976 0.439119,0.923687 a 2.9876695,2.9876695 0 0 0 -0.62903,1.511738 l -0.960434,0.34159 0.961349,0.341818 a 2.9876695,2.9876695 0 0 0 0.624571,1.518834 l -0.435575,0.916361 0.919111,-0.436831 a 2.9876695,2.9876695 0 0 0 1.517459,0.629833 l 0.340445,0.957343 0.341245,-0.959632 a 2.9876695,2.9876695 0 0 0 1.518148,-0.626971 l 0.917732,0.436258 -0.438089,-0.921512 a 2.9876695,2.9876695 0 0 0 0.626402,-1.513455 l 0.961923,-0.342046 -0.964785,-0.343078 A 2.9876695,2.9876695 0 0 0 79.49283,55.818748 l 0.438546,-0.922542 -0.926091,0.440265 a 2.9876695,2.9876695 0 0 0 -1.507843,-0.625598 z m 0.01336,1.962306 a 1.9684301,1.9684301 0 0 1 1.968488,1.968487 1.9684301,1.9684301 0 0 1 -1.968488,1.968373 1.9684301,1.9684301 0 0 1 -1.968372,-1.968373 1.9684301,1.9684301 0 0 1 1.968372,-1.968487 z"
         style="fill:#196360;fill-opacity:1;stroke:#070c18;stroke-width:0.1;stroke-miterlimit:4;stroke-dasharray:none;stroke-opacity:1" />
      <path
         sodipodi:nodetypes="ccccc"
         inkscape:connector-curvature="0"
         id="circle5698"
         d="m 77.978381,57.677899 -0.82582,0.825814 -0.82581,-0.825814 0.82581,-0.825814 z"
         style="fill:#196360;fill-opacity:1;stroke:#070c18;stroke-width:0.1;stroke-miterlimit:4;stroke-dasharray:none;stroke-opacity:1" />
    </g>
    <path
       style="fill:#196360;fill-opacity:1;stroke:#070c18;stroke-width:0.04992489;stroke-miterlimit:4;stroke-dasharray:none;stroke-opacity:1"
       d="m 152.7624,42.100151 c -1.71522,0 -3.10574,1.056047 -3.10574,2.35858 0,1.147348 0.93721,2.102202 2.36659,2.313691 V 57.57334 h -0.2002 c -0.11043,0.387349 -0.14192,0.778132 0,1.176453 h 0.2002 v 0.722125 h -1.02863 v 0.462325 h -0.45329 v -0.908138 h -1.32635 v 0.726511 h 0.68833 v 0.478836 h -0.6828 v 0.458585 0.458584 h 0.6828 v 0.478837 h -0.68833 v 0.726511 h 1.32635 V 61.44583 h 0.45329 v 0.462325 h 1.02863 v 2.810587 c 0,0.428494 1.4783,0.421787 1.4783,0 v -5.968949 h 0.2002 c 0.13417,-0.496498 0.0571,-0.828702 0,-1.176453 h -0.2002 V 46.772422 c 1.42939,-0.211489 2.36658,-1.166343 2.36658,-2.313691 0,-1.302533 -1.39051,-2.358581 -3.10573,-2.35858 z m 0,0.920522 c 1.04578,0 1.89368,0.643892 1.89367,1.438058 0,0.794169 -0.84789,1.437802 -1.89367,1.437802 -1.04579,0 -1.89341,-0.643633 -1.89341,-1.437802 0,-0.794166 0.84762,-1.438058 1.89341,-1.438058 z"
       id="path5734"
       inkscape:connector-curvature="0"
       sodipodi:nodetypes="ssccccccccccccccccccccccccccsscccccssscsss" />
    <g
       aria-label="..."
       style="font-style:normal;font-variant:normal;font-weight:normal;font-stretch:normal;font-size:10.58333302px;line-height:1.25;font-family:Roman;-inkscape-font-specification:'Roman, ';letter-spacing:0px;word-spacing:0px;fill:#144c49;fill-opacity:1;stroke:none;stroke-width:0.26458332"
       id="text6784"
       transform="translate(-0.19637604,-8.985763)">
      <path
         id="path6797"
         style="fill:#144c49;fill-opacity:1;stroke-width:0.26458332"
         d="m 173.48642,94.92053 h 1.09037 v 1.312582 h -1.09037 z m -3.3693,0 h 1.09037 v 1.312582 h -1.09037 z m -3.36931,0 h 1.09038 v 1.312582 h -1.09038 z m -3.69819,-5.013045 v 5.665222 l -2.91233,3.500858 3.07413,-0.583476 h 15.2088 v -8.582604 z"
         inkscape:connector-curvature="0"
         sodipodi:nodetypes="cccccccccccccccccccccc" />
      <path
         sodipodi:nodetypes="cccccccccccccccccccccc"
         inkscape:connector-curvature="0"
         d="m 171.43293,106.24077 h -1.09037 v 1.31258 h 1.09037 z m 3.3693,0 h -1.09037 v 1.31258 h 1.09037 z m 3.36931,0 h -1.09038 v 1.31258 h 1.09038 z m 3.69819,-5.01304 v 5.66522 l 2.91233,3.50086 -3.07413,-0.58348 h -15.2088 v -8.5826 z"
         style="fill:#144c49;fill-opacity:1;stroke-width:0.26458332"
         id="path6801" />
    </g>
    <g
       id="g5155"
       transform="matrix(-2.38664,0,0,2.38664,339.25175,-15.227246)"
       inkscape:export-xdpi="96"
       inkscape:export-ydpi="96">
      <path
         sodipodi:nodetypes="ccccccccc"
         inkscape:connector-curvature="0"
         id="path5183"
         d="m 137.58304,99.170744 c -0.33373,0.751544 -0.31183,1.527556 -0.69324,3.641296 -0.38142,2.11376 -1.56385,5.04087 -1.37315,6.12123 0.1907,1.08035 -3.49841,2.12473 -4.02284,2.40656 -0.52445,0.28182 -2.40701,-2.68932 -2.40701,-2.68932 l 0.14743,-7.79641 1.00671,-0.57902 c 0,0 2.39494,-3.597989 2.46976,-3.741976 0.0747,-0.143978 0.54643,-2.522975 0.49801,-2.955014"
         style="fill:#1a1f2c;fill-opacity:1;stroke:#000000;stroke-width:0;stroke-linecap:butt;stroke-linejoin:miter;stroke-miterlimit:4;stroke-dasharray:none;stroke-opacity:1" />
      <path
         sodipodi:nodetypes="ccccccccscccccccc"
         inkscape:connector-curvature="0"
         id="path6813"
         transform="scale(0.26458333)"
         d="m 410.8457,460.30469 c 0,0 0.14377,-0.12294 0.0586,-0.11903 -5.69643,3.28887 -3.79061,1.97666 -12.82618,11.69726 -8.88866,9.56267 -8.36326,17.91614 -8.34374,18.30078 h 18.40318 c 0,0 -0.61924,-4.66373 0.42689,-7.39062 1.14373,-2.9811 2.6652,-6.99199 6.60547,-9.88477 l 0.002,-0.002 c -2.95303,-5.37586 -4.66657,-11.71875 -4.32618,-12.60156 0.003,-0.008 -0.01,2.7e-4 0,0 z m 4.44922,12.8125 c 0.31498,0.56547 0.6501,1.14058 1.00196,1.7207 -0.35159,-0.58049 -0.68794,-1.15688 -1.00196,-1.7207 z m 1.63281,2.73242 c 0.14425,0.22908 0.28488,0.45358 0.43165,0.68164 -0.14577,-0.22696 -0.28838,-0.45372 -0.43165,-0.68164 z"
         style="fill:#adbad8;fill-opacity:1;stroke:#000000;stroke-width:0;stroke-linecap:butt;stroke-linejoin:miter;stroke-miterlimit:4;stroke-dasharray:none;stroke-opacity:1" />
      <path
         sodipodi:nodetypes="cscccccccccc"
         inkscape:connector-curvature="0"
         id="path5185"
         transform="scale(0.26458333)"
         d="m 476.41016,466.16602 c -6.05733,3.59928 -21.98213,12.63078 -31.70508,13.84765 -11.23193,1.40572 -21.48285,4.94374 -21.39063,4.95508 0,0 -5.14148,-6.62913 -8.10937,-12.00781 -2e-5,0 -0.004,0.002 -0.004,0.002 -0.01,-0.0182 -0.0193,-0.0384 -0.0293,-0.0566 -8.3e-4,6.1e-4 -0.001,10e-4 -0.002,0.002 -3.94027,2.89278 -5.46174,6.90367 -6.60547,9.88477 -1.04613,2.72689 -0.78044,7.39062 -0.78044,7.39062 h 55.52654 l 12.78711,-17.44336 z"
         style="fill:#c6cfe4;fill-opacity:1;stroke:#000000;stroke-width:0;stroke-linecap:butt;stroke-linejoin:miter;stroke-miterlimit:4;stroke-dasharray:none;stroke-opacity:1" />
      <path
         sodipodi:nodetypes="csccccccscccc"
         inkscape:connector-curvature="0"
         id="path5179"
         d="m 113.16427,111.1773 c 0,0 -3.53918,2.81389 -6.73632,4.14123 -1.351,0.56089 -3.62937,3.70983 -3.62937,3.70983 -2.0699,2.78092 -3.263419,2.95762 -3.263419,2.95762 v 4.32655 3.4005 h 3.582789 c 0,0 -0.1839,-2.28884 2.20674,-4.86075 2.39066,-2.57191 3.35662,-3.06165 3.35662,-3.06165 1.33296,-0.81041 4.41041,-2.89083 4.89451,-3.55967 0.48409,-0.66882 0.54371,-2.23976 0.39505,-2.9581 -0.14867,-0.71837 -0.79767,-2.51732 -0.79767,-2.51732 z"
         style="opacity:1;fill:#20315d;fill-opacity:1;fill-rule:nonzero;stroke:#000000;stroke-width:0;stroke-linecap:butt;stroke-linejoin:miter;stroke-miterlimit:4;stroke-dasharray:none;stroke-opacity:1" />
      <path
         sodipodi:nodetypes="scccccscss"
         inkscape:connector-curvature="0"
         id="path6805"
         d="m 128.83355,100.20593 c -0.32747,-0.718065 -3.69141,-0.376664 -3.69141,-0.376664 0,0 3.97232,2.926484 -0.80589,5.131814 -4.77823,2.20533 -11.23155,6.17051 -11.23155,6.17051 0,0 -0.21632,3.94011 0.0919,4.59444 0.27568,0.55133 -0.91888,2.66477 -1.37832,3.49178 -0.45945,0.827 -3.03386,2.30425 -3.12422,2.57288 -0.15106,0.44906 0.37624,1.9235 1.16113,3.34734 0,0 1.23669,-0.30167 2.70259,-1.38771 5.82317,-4.31422 19.66261,-16.11783 16.27577,-23.54439 z"
         style="fill:#c06d61;fill-opacity:1;stroke:#000000;stroke-width:0;stroke-linecap:butt;stroke-linejoin:miter;stroke-miterlimit:4;stroke-dasharray:none;stroke-opacity:1" />
      <path
         sodipodi:nodetypes="ccsccccccsssc"
         inkscape:connector-curvature="0"
         id="path5171"
         d="m 109.85373,125.13365 c 0.7849,1.42384 2.14832,3.18114 2.14832,3.18114 -0.0244,-0.003 2.68769,-0.93941 5.65947,-1.31134 3.19494,-0.39986 9.15305,-4.12148 9.15305,-4.12148 l 4.48413,-4.39929 0.27573,-4.04309 c 0,0 -1.74588,-1.83778 -2.02154,-4.50255 -0.27568,-2.66478 0.0918,-9.64834 0.0918,-9.64834 l -2.14714,-0.21909 c 0,0 3.03798,3.1915 -0.72516,7.69004 -0.81558,0.97496 -3.38556,1.83532 -5.77485,2.90232 -2.46795,1.10213 -4.03487,3.23124 -4.03487,3.23124 0.23509,7.723 -7.10894,11.24044 -7.10894,11.24044 z"
         style="fill:#c87f75;fill-opacity:1;stroke:#000000;stroke-width:0;stroke-linecap:butt;stroke-linejoin:miter;stroke-miterlimit:4;stroke-dasharray:none;stroke-opacity:1" />
      <path
         inkscape:connector-curvature="0"
         id="path5259"
         d="m 113.93177,111.40726 c -1.01078,-0.18378 -2.25129,-0.41351 -2.75667,-1.19457 -0.5054,-0.78104 -3.76744,-10.10776 -3.76744,-10.796926 0,-0.689172 -0.0919,-0.872949 0.0919,-1.791836 0.18378,-0.918884 0.78107,-2.894498 0.50539,-4.089054 -0.27566,-1.194552 -1.14861,-3.124214 0.22973,-6.018713 1.37833,-2.894498 2.29721,-6.432216 6.1106,-7.029494 1.58956,-0.248966 3.02744,-0.601712 4.3569,-0.838615 z"
         style="fill:#ce9087;fill-opacity:1;stroke:#000000;stroke-width:0;stroke-linecap:butt;stroke-linejoin:miter;stroke-miterlimit:4;stroke-dasharray:none;stroke-opacity:1" />
      <path
         sodipodi:nodetypes="cscccccscccccccssc"
         inkscape:connector-curvature="0"
         id="path5173"
         d="m 117.29901,79.507735 c 1.85995,-0.331432 4.91087,-0.295814 6.46487,0.4276 2.66478,1.240499 3.95122,1.56211 5.0539,4.226885 1.10265,2.664775 2.3891,7.534881 2.3891,7.534881 0,0 1.24049,-0.137835 1.88371,1.010781 0.64323,1.14861 0.27568,3.262042 -0.0459,4.043098 -0.32162,0.781055 -1.05026,3.37631 -2.50522,3.55614 -0.7694,0.0951 -0.98659,1.2221 -1.67576,0.80859 -0.68917,-0.41351 -0.75476,-0.98372 -0.75476,-0.98372 h 1e-5 c 0,0 0.3872,3.00527 0.11152,3.64849 -0.27568,0.64323 -1.56211,3.58367 -3.17017,4.27284 -1.60806,0.68916 -4.962,1.92965 -4.962,1.92965 l -2.3891,1.05673 c 0,0 -2.75668,0.55133 -3.76744,0.36756 0,0 -3.27432,-8.97035 -1.54877,-16.608648 0.52162,-2.308983 -0.34353,-4.961325 0.62419,-7.373628 1.66647,-4.154117 4.30445,-8.030864 4.29182,-7.917249 z"
         style="fill:#d49d95;fill-opacity:1;stroke:#000000;stroke-width:0;stroke-linecap:butt;stroke-linejoin:miter;stroke-miterlimit:4;stroke-dasharray:none;stroke-opacity:1" />
      <path
         sodipodi:nodetypes="ccsccscc"
         inkscape:connector-curvature="0"
         id="path5065"
         d="m 116.74688,80.2979 c -0.98926,0.290086 -1.82093,0.437966 -2.94853,0.794588 -1.90258,0.601719 -3.58784,2.364114 -4.2051,3.533668 -0.61726,1.169554 -0.81219,1.689356 -0.81219,1.689356 0,0 -1.36772,-0.460521 -0.94537,-1.695051 0.42234,-1.234528 -0.36307,-2.934167 1.09888,-3.681382 1.46195,-0.747215 4.69188,-4.813863 9.04031,-3.360078 z"
         style="fill:#171a25;fill-opacity:1;stroke:#000000;stroke-width:0;stroke-linecap:butt;stroke-linejoin:miter;stroke-miterlimit:4;stroke-dasharray:none;stroke-opacity:1" />
      <path
         sodipodi:nodetypes="scccccccccccccccccccccscccscs"
         inkscape:connector-curvature="0"
         id="path5175"
         d="m 117.97488,77.579001 c 0.69378,-0.772591 7.28114,-3.434341 12.35322,2.276094 3.81493,4.295089 1.43551,5.733347 3.86517,10.417733 v 0 c 0,0 2.94044,0.09188 3.72148,2.435054 0.78106,2.343166 0.59728,6.202498 0.27567,6.937607 0,0 1.12825,1.761281 0.73138,3.679511 -0.39688,1.91823 -1.71979,7.2099 -3.70417,8.06979 -1.98437,0.8599 -3.63802,1.52136 -3.63802,1.52136 l -0.7276,-3.63803 c 0,0 4.03002,-5.15837 2.52764,-8.4827 0,0 1.10977,-1.134444 1.35858,-1.904012 0.24612,-0.761238 0.64463,-2.041914 0.64463,-2.041914 -0.5839,-0.931408 -1.94975,-2.803686 -1.94975,-2.803686 l 5e-5,4e-6 c -0.51879,-0.272893 -1.74128,-1.074453 -2.67211,0.490535 -0.41251,0.69356 -2.52628,1.125744 -2.52628,1.125744 -1.31297,-0.0035 -1.61802,-1.93941 -1.6505,-2.65413 -0.0325,-0.714732 -0.22741,-4.060953 -1.16956,-4.93812 -0.94214,-0.877166 -0.83342,-0.98595 -1.71059,-1.148388 -0.87716,-0.162439 -1.45175,-0.618841 -2.37313,-2.242183 0,0 1.20125,-1.473334 1.5911,-2.090596 0,0 -0.13888,-1.178792 -1.08102,-1.406207 -0.58758,-0.141831 -1.33048,0.241123 -2.04777,0.243027 -0.37375,9.85e-4 -0.82579,-0.432093 -1.23347,-0.827803 -0.47102,-0.323625 -1.22517,-0.472149 -1.81295,-0.299791 0,0 -0.22261,-0.24017 -0.26718,-0.401111 -0.0632,-0.228276 -0.15783,-0.395704 0.27018,-1.163444 0,0 0.88818,-0.779263 1.225,-1.154344 z"
         style="fill:#1f2433;fill-opacity:1;stroke:#000000;stroke-width:0;stroke-linecap:butt;stroke-linejoin:miter;stroke-miterlimit:4;stroke-dasharray:none;stroke-opacity:1" />
      <path
         sodipodi:nodetypes="ccccsccccc"
         inkscape:connector-curvature="0"
         id="path5177"
         d="m 139.7694,113.34387 c 0,0 -3.65358,-0.50012 -4.56382,-0.59105 0,0 -4.2954,-4.03007 -5.72578,-3.93912 0,0 -0.54177,3.7154 2.09463,5.62589 0,0 -2.5725,2.92316 -3.32334,3.75533 -0.8037,0.89075 -7.39166,7.82246 -8.25235,10.1751 -0.50812,1.30912 -0.55168,1.32438 -0.55168,1.32438 h 20.32234 v -7.71224 z"
         style="fill:#293f79;fill-opacity:1;stroke:#000000;stroke-width:0;stroke-linecap:butt;stroke-linejoin:miter;stroke-miterlimit:4;stroke-dasharray:none;stroke-opacity:1" />
      <path
         sodipodi:nodetypes="ccccccc"
         inkscape:connector-curvature="0"
         id="path5103"
         transform="scale(0.26458333)"
         d="m 425.66996,402.75195 c -2.4394,-0.0571 -2.8184,-0.54101 -2.8184,-0.54101 0,0 -1.50962,6.13149 -5.49218,7.27929 l -1.11329,6.8418 c 0,0 -0.62501,2.6875 1.375,4.625 1.99998,1.93754 4.17275,4.17918 9.91797,4.26758 z"
         style="fill:#171a25;fill-opacity:1;stroke:#000000;stroke-width:0;stroke-linecap:butt;stroke-linejoin:miter;stroke-miterlimit:4;stroke-dasharray:none;stroke-opacity:1" />
      <path
         sodipodi:nodetypes="cccsccsccscccccsc"
         inkscape:connector-curvature="0"
         id="path5187"
         transform="scale(0.26458333)"
         d="m 427.53906,425.22461 c 5.74526,0.0884 9.45752,2.739 13.87696,0.5293 4.4194,-2.2097 6.09447,-6.97114 12.46093,-10.07032 6.36647,-3.09917 14.44604,-2.16163 21.15039,-8.2207 6.70436,-6.05907 6.37037,-7.38114 9.71094,-14.78516 0.78066,-5.07352 -0.19882,-11.14791 -0.54687,-14.22656 -0.3481,-3.07867 -0.52459,-14.48116 1.0664,-17.13281 1.59099,-2.65165 -4.15429,-4.1543 -4.15429,-4.1543 0,0 -1.67912,7.86682 -2.82813,15.91016 -1.14905,8.04334 0.52939,23.06989 -5.03906,26.95898 -5.56846,3.8891 -2.65212,4.77369 -13.78906,7.16016 -11.13695,2.38651 -18.62075,5.50088 -22.80274,1.50195 -0.37887,-0.23026 -0.77233,-0.5482 -1.16601,-0.89648 -2.1957,-1.94252 -3.4419,-2.85276 -4.60743,-5.7168 0,0 -2.85945,0.48531 -5.20113,0.66992 0,0 0.36598,5.01078 -1.32741,11.18854 -1.55639,5.67795 3.19651,11.28412 3.19651,11.28412 z"
         style="fill:#1f2433;fill-opacity:1;stroke:#000000;stroke-width:0;stroke-linecap:butt;stroke-linejoin:miter;stroke-miterlimit:4;stroke-dasharray:none;stroke-opacity:1" />
      <path
         inkscape:connector-curvature="0"
         id="path5245"
         d="m 120.46316,90.454108 c 0,0 -0.14032,-0.608039 -1.59026,-0.841898 -1.44994,-0.233863 -2.24506,-0.514496 -2.24506,-0.514496 0,0 -2.75956,0.374179 -3.3676,0 -0.60804,-0.374176 -1.21608,-0.888669 -1.54348,-0.374176 -0.3274,0.514493 -0.3274,1.637024 0.0935,1.637024 0.42095,0 0.42095,-0.420949 3.32083,-0.187087 2.89987,0.23386 5.23848,0.280633 5.33203,0.280633 z"
         style="fill:#1f2433;fill-opacity:1;stroke:#000000;stroke-width:0;stroke-linecap:butt;stroke-linejoin:miter;stroke-miterlimit:4;stroke-dasharray:none;stroke-opacity:1" />
      <path
         sodipodi:nodetypes="cccscscc"
         inkscape:connector-curvature="0"
         id="path5249"
         d="m 110.3468,90.459633 c 0,0 -0.13229,-2.116666 -1.38906,-0.661458 l -1.39176,-0.215362 c 0,0 -0.14042,0.269027 -0.16547,0.533086 -0.0301,0.317169 0.0709,0.642543 0.0709,0.642543 0.24137,-0.130041 0.33299,-0.235994 0.95689,-0.27029 0.75822,-0.04168 1.84592,0.02592 1.91849,-0.02851 z"
         style="fill:#1a1e2b;fill-opacity:1;stroke:#000000;stroke-width:0;stroke-linecap:butt;stroke-linejoin:miter;stroke-miterlimit:4;stroke-dasharray:none;stroke-opacity:1" />
      <ellipse
         transform="matrix(-0.99975594,0.02209218,0.02209218,0.99975594,0,0)"
         ry="0.29765624"
         rx="0.54570311"
         cy="95.440155"
         cx="-113.60733"
         id="path5251"
         style="fill:#1f2433;fill-opacity:1;stroke-width:0;stroke-miterlimit:4;stroke-dasharray:none" />
      <ellipse
         transform="matrix(-0.97798387,0.2086805,0.15915937,0.9872529,0,0)"
         ry="0.24631248"
         rx="0.3325038"
         cy="114.61317"
         cx="-92.6567"
         id="path5255"
         style="fill:#1a1e2b;fill-opacity:1;stroke-width:0;stroke-miterlimit:4;stroke-dasharray:none" />
      <path
         sodipodi:nodetypes="ccsssccccc"
         inkscape:connector-curvature="0"
         id="path5069"
         transform="scale(0.26458333)"
         d="m 489.37305,411.26367 c 0,0 -2.03866,13.98753 7.85937,21.22071 0.004,-0.004 2.22266,-1.95142 -1.084,-5.2852 -3.53349,-3.56247 -0.21292,-7.30879 -0.21292,-7.30879 4.3935,-0.20001 4.83508,7.63783 15.08473,8.36562 6.25407,0.44408 17.92311,0.32403 17.92311,0.32403 l -1.37046,-0.19336 c 0,0 -13.11876,-1.8907 -16.55904,-2.23438 0,0 -16.23446,-15.23242 -21.64062,-14.88867 z"
         style="opacity:0.17399998;fill:#000000;fill-opacity:1;stroke:#000000;stroke-width:0;stroke-linecap:butt;stroke-linejoin:miter;stroke-miterlimit:4;stroke-dasharray:none;stroke-opacity:1" />
      <path
         sodipodi:nodetypes="ccscscc"
         inkscape:connector-curvature="0"
         id="path5099"
         d="m 133.43313,94.045809 c 0,0 1.55919,-1.428565 0.76014,-3.772982 0,0 0.22121,-0.0354 0.41318,-0.01662 0.13813,0.01351 0.24915,0.075 0.30787,0.10436 0.0831,0.04154 0.28457,1.281587 -0.0438,2.289142 -0.23023,0.706311 -0.74425,1.344431 -1.43735,1.396103 z"
         style="fill:#293f79;fill-opacity:1;stroke:#000000;stroke-width:0;stroke-linecap:butt;stroke-linejoin:miter;stroke-miterlimit:4;stroke-dasharray:none;stroke-opacity:1" />
    </g>
    <g
       id="g5202"
       inkscape:export-xdpi="96"
       inkscape:export-ydpi="96"
       transform="matrix(2.1753502,0,0,2.1753502,48.847159,8.1049474)">
      <g
         id="g5126">
        <path
           style="fill:#79341c;fill-opacity:1;stroke:#000000;stroke-width:0;stroke-linecap:butt;stroke-linejoin:miter;stroke-miterlimit:4;stroke-dasharray:none;stroke-opacity:1"
           d="m 75.65171,100.50911 -10.961087,17.57567 -0.236677,11.84076 h 8.88266 3.118673 -0.37827 l 4.866368,-6.92685 c 0,0 -2.314805,-5.66943 -0.944645,-6.66161 1.370172,-0.99219 1.048515,-4.96765 1.048515,-4.96765 l 0.801502,-0.4346 1.152901,-1.80403 0.799436,-1.06815 -1.321885,-1.53892 -1.554057,-1.36197 -0.02643,0.63444 c 0.202102,-0.58798 -0.252536,2.86725 -3.125686,4.06996 0,0 1.599975,-1.62058 1.871204,-2.60604 0.465723,-1.6921 0.815925,-2.24387 1.070735,-2.29082 z m 3.473691,4.91908 c 0.05148,-2.7e-4 -0.208503,0.72884 -0.250269,1.07103 -0.05672,0.46471 0.209629,0.71565 -0.867492,1.10455 0.0633,-0.0862 0.190795,-0.79454 0.951362,-1.81385 0.100229,-0.26309 0.149238,-0.36163 0.166399,-0.36173 z m 2.62696,2.53872 c 0.265841,0.46051 -0.164652,1.11421 -0.164652,1.11421 0,0 -0.684933,0.8269 -1.889734,1.15763 0,0 1.0781,-0.7884 1.54939,-1.22746 0.256516,-0.38151 0.361783,-0.75062 0.504996,-1.04438 z m -6.617414,14.34139 c -0.02328,0.0466 -0.08637,0.32306 -0.138493,0.68884 0.01027,0.97762 0.773596,1.91668 0.773596,1.91668 0,0 -0.100383,1.10257 -0.601514,0.30076 -0.326432,-0.52231 -0.785151,-1.35183 -0.687747,-2.03537 -0.0024,-0.23157 0.280119,-0.63517 0.654158,-0.87091 z m 0.865063,0.38499 c -0.0057,0.0453 0.0191,0.29551 0.07751,0.61856 0.273373,0.82169 1.125514,1.42162 1.125514,1.42162 0,0 0.220102,0.95539 -0.390157,0.40463 -0.396997,-0.35832 -1.018646,-0.87164 -1.068951,-1.48143 -0.06502,-0.19543 0.236307,-0.74789 0.256079,-0.96338 z"
           id="path4694"
           inkscape:connector-curvature="0"
           sodipodi:nodetypes="cccccccccccccccccccssccscccccccccccccccccc" />
        <path
           style="fill:#c37771;fill-opacity:0.98901098;stroke:#000000;stroke-width:0;stroke-linecap:butt;stroke-linejoin:miter;stroke-miterlimit:4;stroke-dasharray:none;stroke-opacity:1"
           d="m 68.045167,115.1084 -8.85661,-4.60157 0.39939,12.25559 4.86644,5.05543 z"
           id="path4717"
           inkscape:connector-curvature="0"
           sodipodi:nodetypes="cccc" />
        <path
           style="fill:#bd6a64;fill-opacity:0.98901098;stroke:#000000;stroke-width:0;stroke-linecap:butt;stroke-linejoin:miter;stroke-miterlimit:4;stroke-dasharray:none;stroke-opacity:1"
           d="m 63.367707,123.09315 c 0,0 0.99218,5.85863 3.40179,6.18936 2.4096,0.33073 2.45684,0.28348 2.45684,0.28348 -0.82815,-0.81158 -1.67321,-1.34689 -2.50409,-2.45684 -0.73233,-1.11031 1.724166,-2.95515 0.93209,-6.03951 -0.795324,-3.09701 0.39083,-5.96124 0.39083,-5.96124 l 0.51971,-1.37016 c 0,0 -7.11335,-2.11021 -7.21616,-1.08552 -0.11974,1.19345 3.99009,3.78436 4.83561,3.64784 0.84927,-0.13712 -2.81662,6.79259 -2.81662,6.79259 z"
           id="path4625"
           inkscape:connector-curvature="0"
           sodipodi:nodetypes="csccsccssc" />
        <path
           style="fill:#a64826;fill-opacity:1;stroke:#000000;stroke-width:0;stroke-linecap:butt;stroke-linejoin:miter;stroke-miterlimit:4;stroke-dasharray:none;stroke-opacity:1"
           d="m 73.313777,109.12832 c -0.61421,1.37016 -2.68443,5.05418 1.7739,9.01696 1.55716,1.38408 5.75085,2.93299 4.533,5.04236 -1.07431,1.86076 -4.82386,0.40265 -5.66607,3.08339 -1.12482,6.85946 13.25735,4.75471 8.56277,-0.30513 4.63021,-7.08706 -1.40729,-9.67561 -5.49557,-11.28272 -2.04403,-0.80352 -4.93645,-1.25608 -3.70802,-5.55555"
           id="path4611"
           inkscape:connector-curvature="0"
           sodipodi:nodetypes="cssccsc" />
        <path
           style="fill:#cc7d76;fill-opacity:0.98901098;stroke:#000000;stroke-width:0;stroke-linecap:butt;stroke-linejoin:miter;stroke-miterlimit:4;stroke-dasharray:none;stroke-opacity:1"
           d="m 62.368217,81.601591 c 0,0 12.4912,0.201685 13.40036,5.145596 0.54502,2.963761 0.96127,11.180566 0.34219,15.301173 -0.40356,2.68613 -3.76577,9.16981 -4.01715,9.88898 -0.19643,0.56197 -0.93871,1.63854 -1.75469,2.18179 -1.06848,0.71135 -2.0386,0.86047 -2.79398,0.99074"
           id="path4698"
           inkscape:connector-curvature="0"
           sodipodi:nodetypes="cscccc" />
        <path
           style="fill:#d29a95;fill-opacity:0.98901098;stroke:#000000;stroke-width:0;stroke-linecap:butt;stroke-linejoin:miter;stroke-miterlimit:4;stroke-dasharray:none;stroke-opacity:1"
           d="m 69.130947,104.61807 c -0.1129,5.49379 -1.48975,10.48409 -1.5887,10.49161 -0.50689,0.0385 -0.88926,0.0632 -1.84587,-0.0836 -0.65443,-0.10041 -1.3399,-0.28658 -1.95493,-0.61655 -1.85173,-0.99347 -5.81311,-4.47677 -6.94901,-7.75082 -1.13589,-3.27405 -5.74629,-3.80859 -6.81537,-7.550357 -1.06908,-3.741774 -3.0736,-6.481285 -1.26953,-10.22306 1.80407,-3.741774 3.0736,-6.748555 6.34765,-7.684 3.27405,-0.935442 11.56314,0.758609 11.56314,0.758609 0,0 -0.95251,2.423632 -1.90999,2.366843 0,0 2.41523,2.05151 2.84664,4.852286 0,0 0.89802,4.59093 1.16051,7.534279 0.38126,4.27518 0.41546,7.90471 0.41546,7.90471 z"
           id="path4641"
           inkscape:connector-curvature="0"
           sodipodi:nodetypes="cssscssscsssc" />
        <path
           style="fill:#bf532c;fill-opacity:1;stroke:#000000;stroke-width:0;stroke-linecap:butt;stroke-linejoin:miter;stroke-miterlimit:4;stroke-dasharray:none;stroke-opacity:1"
           d="m 57.694477,93.395515 c 0,0 1.13589,-0.467719 1.9377,-0.434311 0.80181,0.03341 5.04471,0.434311 5.61266,1.002261 0.56795,0.567946 1.19762,1.322118 0.86863,1.202711 -0.75021,-0.272289 -5.41221,-0.768398 -6.71515,-0.634765 -1.30294,0.133636 -2.53906,0.668174 -2.53906,0.668174 0,0 -1.16931,0.367495 -1.93771,0.100227 -0.7684,-0.267269 -0.33408,-1.503392 -0.33408,-1.503392 0,0 0.26727,-0.534538 0.93544,-0.567947 0.66818,-0.03341 2.17157,0.167042 2.17157,0.167042 z"
           id="path4649"
           inkscape:connector-curvature="0"
           sodipodi:nodetypes="cccsccccsc" />
        <path
           style="fill:#a64826;fill-opacity:1;stroke:#000000;stroke-width:0;stroke-linecap:butt;stroke-linejoin:miter;stroke-miterlimit:4;stroke-dasharray:none;stroke-opacity:1"
           d="m 70.111267,95.262287 c 0.0938,-0.125981 0.67944,-0.653871 1.92485,-1.06113 1.24543,-0.407255 2.73268,-1.164851 3.05902,-1.086838 0.32635,0.07802 0.99128,0.80651 0.99128,0.80651 l -0.28705,0.957327 -2.08679,0.169019 c 0,0 -2.80694,0.516328 -2.93747,0.485122 -0.13055,-0.03122 -0.58651,0.09451 -0.66388,-0.369238 z"
           id="path4651"
           inkscape:connector-curvature="0"
           sodipodi:nodetypes="ccccccccc" />
        <path
           style="fill:#2a555f;fill-opacity:1;stroke:#000000;stroke-width:0;stroke-linecap:butt;stroke-linejoin:miter;stroke-miterlimit:4;stroke-dasharray:none;stroke-opacity:1"
           d="m 64.832987,129.92554 h 8.50384 c 0,0 -0.675786,-2.36537 -1.993033,-4.5139 -1.099108,-1.79273 -2.772689,-3.37765 -3.669827,-3.84624 l -3.44633,-0.43696 z"
           id="path4737"
           inkscape:connector-curvature="0"
           sodipodi:nodetypes="ccsccc" />
        <path
           style="fill:#336672;fill-opacity:1;stroke:#000000;stroke-width:0;stroke-linecap:butt;stroke-linejoin:miter;stroke-miterlimit:4;stroke-dasharray:none;stroke-opacity:1"
           d="m 47.303572,118.9824 c 0,0 -4.157667,2.31518 -5.527828,4.06332 -1.370163,1.74814 -3.401859,6.87968 -3.401859,6.87968 h 14.552083 11.906766 c 0,0 0.340124,-0.73865 0.03928,-5.36711 -0.0907,-1.396 -0.644406,-3.42977 -0.644406,-3.42977 z"
           id="path4623"
           inkscape:connector-curvature="0"
           sodipodi:nodetypes="cccccccc" />
        <path
           style="fill:#a64826;fill-opacity:1;stroke:#000000;stroke-width:0;stroke-linecap:butt;stroke-linejoin:miter;stroke-miterlimit:4;stroke-dasharray:none;stroke-opacity:1"
           d="m 64.708332,84.326795 c 0,0 1.371642,1.718762 3.810474,0.315595 2.438839,-1.403165 4.40986,-1.102463 4.944401,-0.567923 0.53454,0.534538 1.503756,1.002173 0.735356,4.276225 -0.7684,3.274052 -1.202812,8.352316 0.534437,11.49273 1.971119,4.242918 8.987052,7.015878 8.051602,9.053818 -0.93544,2.03793 -1.737363,2.4722 -1.737363,2.4722 l 0.801502,-0.4346 c 1.80407,-1.1359 1.604037,-2.13785 1.604037,-2.13785 1.13589,-0.33409 -0.86868,-4.81108 -0.86868,-4.81108 1.269529,-2.60588 -2.071709,-7.55044 -2.071709,-7.55044 0.06682,-4.543584 -1.013891,-6.199622 -1.013891,-6.199622 -1.239896,-6.495534 -5.943306,-7.975224 -5.943306,-7.975224 -0.889342,-3.781901 -8.491797,-8.505118 -12.081669,-6.574134 2.098188,1.092407 4.870749,6.608858 4.988867,7.62467 0.118115,1.015812 -1.754058,1.015635 -1.754058,1.015635 z"
           id="path4711"
           inkscape:connector-curvature="0"
           sodipodi:nodetypes="cccscccccccccccc" />
        <path
           style="fill:#bf532c;fill-opacity:1;stroke:#000000;stroke-width:0;stroke-linecap:butt;stroke-linejoin:miter;stroke-miterlimit:4;stroke-dasharray:none;stroke-opacity:1"
           d="m 61.640163,75.685818 c -0.107233,-0.0016 -0.166397,5.3e-4 -0.166397,5.3e-4 -8.268419,2e-6 -15.91841,7.338263 -15.91841,16.885274 0,0 -2.078796,3.118522 -1.228346,7.229017 0.85045,4.110491 -1.889808,8.551411 -1.889808,8.551411 0,0 -2.693006,1.6538 -2.881995,6.473 -0.188986,4.81919 1.086755,6.14174 1.086755,6.14174 0,0 -1.606248,0.94516 -1.795238,4.58318 0,0 -1.842709,1.80287 -2.409674,4.37544 h 1.93425 c 0.514943,-1.14754 11.93269,-0.005 11.93269,-0.005 l 5.899298,0.005 c 0.0024,-0.007 1.873808,-3.43261 3.384804,-7.16286 1.511911,-3.73253 0.09457,-5.71697 0.09457,-5.71697 0,0 2.543381,-3.62804 1.606102,-7.0869 -0.937291,-3.45889 -5.291732,-5.95335 -6.047692,-9.54413 -0.755951,-3.59077 2.657719,-7.096719 2.657719,-7.096719 l -0.0036,5.3e-4 c 0.522226,-0.48518 1.009282,-0.973238 1.409216,-1.455209 1.84268,-2.220608 1.795237,-5.103048 1.795237,-5.103048 0,0 0.283639,-4.063317 3.1657,-4.063317 2.882069,0 0.442867,1.629873 0.442867,1.629873 0,0 0.7726,0.58683 1.973006,-0.285768 0.809691,-1.055127 2.624074,-2.722661 0.234093,-5.879746 -1.432391,-2.280145 -4.524499,-2.464789 -5.27513,-2.475301 z"
           id="path4675"
           inkscape:connector-curvature="0"
           sodipodi:nodetypes="cccscsccccccscccccccsccccc" />
        <path
           style="fill:#2a555f;fill-opacity:1;stroke:#000000;stroke-width:0;stroke-linecap:butt;stroke-linejoin:miter;stroke-miterlimit:4;stroke-dasharray:none;stroke-opacity:1"
           d="m 47.303717,121.534 c 0.14174,0.18899 2.31511,0.75595 2.50409,2.64583 0.18899,1.88988 0.47248,5.74571 0.47248,5.74571 h -1.79539 z"
           id="path4779"
           inkscape:connector-curvature="0" />
        <path
           style="fill:#336672;fill-opacity:1;stroke:#000000;stroke-width:0;stroke-linecap:butt;stroke-linejoin:miter;stroke-miterlimit:4;stroke-dasharray:none;stroke-opacity:1"
           d="M 48.484897,129.92554 H 38.371231 c 0,0 1.514706,-6.40717 4.066046,-7.4466 2.55134,-1.03944 4.741237,-0.97373 4.871608,-0.94494 0,0 0.805562,1.33666 1.043012,2.87722 0.37322,2.4214 0.133,5.51432 0.133,5.51432 z"
           id="path4671"
           inkscape:connector-curvature="0"
           sodipodi:nodetypes="ccccsc" />
        <path
           style="fill:#9e4425;fill-opacity:1;stroke:#000000;stroke-width:0;stroke-linecap:butt;stroke-linejoin:miter;stroke-miterlimit:4;stroke-dasharray:none;stroke-opacity:1"
           d="m 53.075687,120.69931 c 0,0 -3.814314,-2.16613 -1.059523,-6.11149 1.491147,-2.13559 5.131385,-1.36455 6.343092,-3.44285 0.880029,-1.50941 -2.40475,-6.04803 -1.304986,-4.56335 1.099763,1.48468 3.572684,3.23341 2.507446,5.4231 -0.773007,1.58898 -1.38571,1.48003 -3.051326,2.40083 h 5e-6 c 0,0 -3.581514,1.4438 0.294913,4.23842 1.148808,0.82821 2.937,3.99992 -0.307335,7.63943 -1.081445,1.21317 -3.244334,3.63951 -3.244334,3.63951 h -1.187878 c 0,0 3.158588,-2.67155 2.903863,-5.62636 -0.254725,-2.95481 -1.893937,-3.59724 -1.893937,-3.59724 z"
           id="path4678"
           inkscape:connector-curvature="0"
           sodipodi:nodetypes="csssscsssccsc" />
        <circle
           style="fill:#336672;fill-opacity:1;stroke:#fbfbfb;stroke-width:0;stroke-miterlimit:4;stroke-dasharray:none;stroke-opacity:1"
           id="path4729"
           cx="63.071877"
           cy="99.60218"
           r="0.46772167" />
        <ellipse
           id="circle4733"
           style="fill:#2d5964;fill-opacity:1;stroke:#fbfbfb;stroke-width:0;stroke-miterlimit:4;stroke-dasharray:none;stroke-opacity:1"
           ry="0.40090439"
           rx="0.38420004"
           cy="99.623383"
           cx="72.928345" />
        <path
           style="fill:#79341c;fill-opacity:1;stroke:#000000;stroke-width:0;stroke-linecap:butt;stroke-linejoin:miter;stroke-miterlimit:4;stroke-dasharray:none;stroke-opacity:1"
           d="m 76.51938,89.757076 c 0,0 -0.51991,1.494799 -0.760678,3.009636 -0.239863,1.509151 -0.422209,1.717558 0.363803,3.538802 0,0 0.241767,1.194519 2.711979,3.704166 0.529167,0.26458 0.264583,-1.785937 -0.79375,-2.513541 -1.058333,-0.727604 -1.427365,-1.860922 -1.5875,-3.307292 -0.163703,-1.478594 -0.06615,-3.042708 0.06615,-4.431771 z"
           id="path6884"
           inkscape:connector-curvature="0"
           sodipodi:nodetypes="csscsscc" />
        <path
           style="fill:#79341c;fill-opacity:1;stroke:#000000;stroke-width:0;stroke-linecap:butt;stroke-linejoin:miter;stroke-miterlimit:4;stroke-dasharray:none;stroke-opacity:1"
           d="m 77.509783,93.306637 c 0,0 -0.491797,0.900216 0.03199,1.940922 0.523792,1.040707 1.250102,1.341508 1.250102,1.341508 0,0 -0.824724,-1.177656 -1.06391,-1.804233 -0.210993,-0.552724 -0.218186,-1.478197 -0.218186,-1.478197 z"
           id="path6890"
           inkscape:connector-curvature="0"
           sodipodi:nodetypes="cccscc" />
        <path
           id="path5047"
           d="m 47.306818,121.53399 c 0.203752,0.0278 2.312009,0.75596 2.500989,2.64584 0.18899,1.88988 0.47248,5.74571 0.47248,5.74571 h -1.79539 c 0,0 0.475641,-1.20795 0.01428,-4.30575 -0.445428,-2.99081 -1.192359,-4.0858 -1.192359,-4.0858 z"
           style="fill:#2a555f;fill-opacity:1;stroke:#000000;stroke-width:0;stroke-linecap:butt;stroke-linejoin:miter;stroke-miterlimit:4;stroke-dasharray:none;stroke-opacity:1"
           inkscape:connector-curvature="0"
           sodipodi:nodetypes="ccccsc" />
        <path
           style="fill:#9e4425;fill-opacity:1;stroke:#000000;stroke-width:0;stroke-linecap:butt;stroke-linejoin:miter;stroke-miterlimit:4;stroke-dasharray:none;stroke-opacity:1"
           d="m 49.212499,118.14166 c 0,0 -0.661458,-4.7625 2.248959,-5.75468 2.442694,-0.8051 0.514477,-2.21627 -2.844271,-0.19844 -2.655805,1.59553 -0.330729,5.29167 0.595312,5.95312 z"
           id="path5059"
           inkscape:connector-curvature="0"
           sodipodi:nodetypes="ccsc" />
      </g>
      <path
         sodipodi:nodetypes="cscsc"
         inkscape:connector-curvature="0"
         id="path5174"
         d="m 47.988243,91.108918 c 0,0 -1.216075,2.525696 1.683798,2.245063 2.899876,-0.280633 3.835318,-1.870884 5.051393,-2.245063 1.216078,-0.374177 0.144913,-0.760396 -2.61924,0.280633 -1.841543,0.693558 -2.245064,1.122532 -4.115951,-0.280633 z"
         style="fill:#9e4425;fill-opacity:1;stroke:#000000;stroke-width:0;stroke-linecap:butt;stroke-linejoin:miter;stroke-miterlimit:4;stroke-dasharray:none;stroke-opacity:1" />
      <path
         style="fill:#9e4425;fill-opacity:1;stroke:#000000;stroke-width:0;stroke-linecap:butt;stroke-linejoin:miter;stroke-miterlimit:4;stroke-dasharray:none;stroke-opacity:1"
         d="m 48.848419,89.641738 c 0,0 -0.575958,1.557387 1.327266,1.331076 1.903227,-0.226312 2.384878,-1.310303 3.315296,-1.810491 0,0 0.0016,-0.192257 -1.812586,0.647262 -1.208628,0.559307 -2.198434,1.23265 -2.829976,-0.167847 z"
         id="path5176"
         inkscape:connector-curvature="0"
         sodipodi:nodetypes="cscsc" />
    </g>
  </g>
</svg>
